<svg xmlns="http://www.w3.org/2000/svg" viewBox="0 0 48 48" id="emoji"><symbol id="New_Symbol_14" viewBox="-6.5 -6.5 13 13"><path fill="#ffd4c3" stroke="#504b46" stroke-linecap="round" stroke-linejoin="round" stroke-miterlimit="10" d="M0-6c2.2 0 4.1 1.5 4.7 3.5C6.3-2.5 6.4 0 5 0v1c0 2.8-2.2 5-5 5s-5-2.2-5-5V0c-1.4 0-1.3-2.5.2-2.5C-4.1-4.5-2.2-6 0-6z"></path><circle cx="-1.6" cy="-.1" r=".1" fill="#ffc258"></circle><path fill="#4f4b45" d="M-1.6.5c-.3 0-.6-.3-.6-.6s.2-.7.6-.7c.3 0 .6.3.6.7s-.3.6-.6.6z"></path><circle cx="1.6" cy="-.1" r=".1" fill="#ffc258"></circle><path fill="#4f4b45" d="M1.6.5C1.3.5 1 .2 1-.1s.3-.6.6-.6.6.3.6.6-.2.6-.6.6z"></path><circle cx="-3" cy="-1.5" r=".5" fill="#fabfa5"></circle><circle cx="3" cy="-1.5" r=".5" fill="#fabfa5"></circle><path fill="none" stroke="#504b46" stroke-linecap="round" stroke-linejoin="round" stroke-miterlimit="10" d="M-1.2-3c.8-.5 1.7-.5 2.5 0"></path></symbol><g id="Icons"><g id="XMLID_618_"><ellipse id="XMLID_1822_" cx="24" cy="44.9" fill="#45413c" opacity=".15" rx="16" ry="1.5"></ellipse><circle id="XMLID_1757_" cx="24" cy="21.6" r="20" fill="#ffe500"></circle><path id="XMLID_1754_" fill="#ebcb00" d="M24 1.6c-11 0-20 9-20 20s9 20 20 20 20-9 20-20-9-20-20-20zm0 37c-10.1 0-18.2-8.2-18.2-18.2C5.8 10.2 13.9 2.1 24 2.1s18.2 8.2 18.2 18.2c.1 10.1-8.1 18.3-18.2 18.3z"></path><ellipse id="XMLID_1753_" cx="24" cy="5.6" fill="#fff48c" rx="6" ry="1.5"></ellipse><circle id="XMLID_1747_" cx="24" cy="21.6" r="20" fill="none" stroke="#45413c" stroke-linecap="round" stroke-linejoin="round" stroke-miterlimit="10"></circle><ellipse id="XMLID_1746_" cx="36" cy="26.6" fill="#ffaa54" rx="2.5" ry="1.5"></ellipse><ellipse id="XMLID_1745_" cx="12" cy="26.6" fill="#ffaa54" rx="2.5" ry="1.5"></ellipse><circle id="XMLID_1744_" cx="13.5" cy="20.6" r="1" fill="#45413c" stroke="#45413c" stroke-linecap="round" stroke-linejoin="round" stroke-miterlimit="10"></circle><ellipse id="XMLID_1743_" cx="34.5" cy="19.6" fill="#45413c" stroke="#45413c" stroke-linecap="round" stroke-linejoin="round" stroke-miterlimit="10" rx="1" ry="1.5"></ellipse><path id="XMLID_1742_" fill="none" stroke="#45413c" stroke-linecap="round" stroke-linejoin="round" stroke-miterlimit="10" d="M18.5 27.6h11"></path><path id="XMLID_1741_" fill="none" stroke="#45413c" stroke-linecap="round" stroke-linejoin="round" stroke-miterlimit="10" d="M31.8 14.6s.8-2 2.7-2 2.7 2 2.7 2"></path><path id="XMLID_1740_" fill="none" stroke="#45413c" stroke-linecap="round" stroke-linejoin="round" stroke-miterlimit="10" d="M10.6 17.1s.7.6 2.9.9c2.2.3 3-.1 3-.1"></path></g></g></svg>